<svg class="img-fluid" id="outputsvg" xmlns="http://www.w3.org/2000/svg" style="transform: matrix(1, 0, 0, 1, 0, 0); transform-origin: 50% 50%; cursor: move; transition: transform 200ms ease-in-out 0s;" viewBox="0 0 5120 5120"><g id="l7fRz3Xz9MyssSnS5Ev6l1e" fill="rgb(255,215,163)" style="transform: none;"><g style="transform: none;"><path id="p16lV3oBb8" d="M2184 4028 c-18 -40 -83 -98 -111 -98 -8 0 -13 -12 -13 -34 0 -30 6 -37 44 -60 77 -45 113 -116 91 -180 -17 -48 -68 -102 -112 -118 -28 -10 -33 -17 -33 -44 0 -26 5 -33 25 -38 32 -8 92 -61 111 -97 36 -71 -4 -161 -90 -204 l-50 -25 -373 0 -373 0 0 -1555 0 -1554 38 -8 c20 -4 469 -8 997 -8 l960 0 60 25 60 25 5 277 c5 261 6 278 26 305 12 15 36 37 55 48 31 18 55 20 286 23 l252 4 18 46 c16 42 18 94 21 505 2 391 5 457 17 457 8 0 15 7 15 15 0 13 -67 15 -540 15 -352 0 -557 4 -592 11 -204 42 -395 233 -437 437 -8 36 -11 341 -11 962 l0 910 -163 0 -164 0 -19 -42z m-257 -1188 c7 -14 13 -40 13 -58 0 -22 6 -34 18 -38 95 -30 162 -94 187 -177 19 -63 19 -91 0 -153 -29 -99 -82 -140 -300 -230 -88 -37 -115 -73 -115 -151 0 -123 50 -159 212 -151 61 3 104 10 125 21 29 15 33 16 48 1 9 -9 14 -21 12 -28 -6 -19 -70 -50 -127 -62 -51 -10 -55 -13 -58 -40 -11 -113 -87 -123 -94 -11 -3 48 -5 51 -40 63 -87 30 -158 123 -158 206 0 113 79 189 269 258 41 15 80 39 108 65 l43 42 0 92 c0 153 -32 185 -185 184 -104 0 -129 -8 -186 -60 -39 -36 -42 -36 -55 -18 -20 26 -19 28 29 72 37 34 136 83 167 83 6 0 10 19 10 42 0 71 50 102 77 48z m-51 -1371 c14 -15 16 -24 8 -37 -20 -31 -57 -42 -151 -42 -96 0 -140 10 -160 37 -11 14 -9 21 9 40 20 22 29 23 148 23 115 0 129 -2 146 -21z m1632 5 c28 -19 28 -36 1 -60 -20 -18 -48 -19 -658 -22 -438 -2 -648 0 -673 8 -50 14 -65 43 -38 70 20 20 31 20 683 20 583 0 665 -2 685 -16z m-519 -379 c40 -20 45 -41 14 -65 -25 -20 -37 -20 -713 -20 l-687 0 -21 23 c-18 19 -20 26 -9 39 29 37 41 37 720 38 567 0 672 -2 696 -15z m515 -6 c60 -47 17 -79 -110 -79 -77 0 -95 3 -117 20 -54 43 0 79 119 80 67 0 86 -4 108 -21z"/></g></g><g id="l6ebsdicGTRJBSRqZVsmb5I" fill="rgb(255,204,136)" style="transform: none;"><g style="transform: none;"><path id="pauirmAxx" d="M4630 4765 c0 -33 2 -35 35 -35 33 0 35 2 35 35 0 33 -2 35 -35 35 -33 0 -35 -2 -35 -35z"/><path id="p15UYNqXRt" d="M4690 4685 c0 -33 2 -35 35 -35 33 0 35 2 35 35 0 33 -2 35 -35 35 -33 0 -35 -2 -35 -35z"/><path id="p9zUAJFXb" d="M4260 4480 c0 -39 1 -40 35 -40 34 0 35 1 35 40 0 39 -1 40 -35 40 -34 0 -35 -1 -35 -40z"/><path id="p1Cd20I8Id" d="M2160 3985 c0 -8 -7 -15 -15 -15 -9 0 -15 -9 -15 -25 0 -22 -4 -25 -35 -25 -33 0 -35 -2 -35 -35 0 -33 2 -35 35 -35 39 0 46 14 14 30 -20 11 -18 13 20 32 39 19 81 60 81 79 0 5 -11 9 -25 9 -16 0 -25 -6 -25 -15z"/><path id="p13PHKKh6h" d="M2160 3818 c0 -21 5 -38 10 -38 6 0 10 -7 10 -15 0 -8 5 -15 11 -15 15 0 5 -123 -10 -128 -6 -2 -11 -17 -11 -33 0 -23 -4 -29 -22 -29 -13 0 -42 -8 -65 -17 -38 -16 -43 -22 -43 -50 0 -31 2 -33 33 -33 17 0 39 4 46 9 12 8 9 11 -13 17 l-27 7 38 17 c67 30 123 113 123 184 0 37 -23 96 -51 128 l-28 33 -1 -37z"/><path id="poxsXy9W3" d="M4260 3805 c0 -33 2 -35 35 -35 33 0 35 2 35 35 0 33 -2 35 -35 35 -33 0 -35 -2 -35 -35z"/><path id="p6BpO4MM4" d="M4300 3725 c0 -33 2 -35 35 -35 33 0 35 2 35 35 0 33 -2 35 -35 35 -33 0 -35 -2 -35 -35z"/><path id="pzmkjcTtW" d="M4630 3705 c0 -33 2 -35 35 -35 33 0 35 2 35 35 0 33 -2 35 -35 35 -33 0 -35 -2 -35 -35z"/><path id="pXELpX9fC" d="M2170 3408 c0 -20 5 -38 13 -41 8 -2 11 -28 10 -85 -2 -80 7 -100 26 -64 31 57 20 150 -24 199 l-24 28 -1 -37z"/><path id="pFlhmmS8k" d="M4270 3385 c0 -33 2 -35 35 -35 33 0 35 2 35 35 0 33 -2 35 -35 35 -33 0 -35 -2 -35 -35z"/><path id="pY4yzse6N" d="M2140 3160 c0 -27 2 -29 19 -19 10 7 23 20 30 30 10 17 8 19 -19 19 -27 0 -30 -3 -30 -30z"/><path id="pVRzhohqg" d="M1290 1575 c0 -1548 0 -1555 20 -1555 20 0 20 7 20 1540 0 1362 2 1540 15 1540 8 0 15 7 15 15 0 10 -11 15 -35 15 l-35 0 0 -1555z"/><path id="pnuYAi1gT" d="M4690 3045 c0 -33 2 -35 35 -35 33 0 35 2 35 35 0 33 -2 35 -35 35 -33 0 -35 -2 -35 -35z"/><path id="pnOUaPy2N" d="M3513 730 c-45 -10 -81 -36 -103 -73 -26 -42 -26 -67 0 -67 13 0 20 7 20 20 0 11 5 20 10 20 6 0 10 9 10 20 0 13 7 20 19 20 11 0 21 6 23 13 4 9 69 13 271 15 252 3 268 4 277 23 10 19 5 19 -242 18 -139 -1 -268 -4 -285 -9z"/></g></g><g id="lfiRJBduCOfLM0AIXQeQoW" fill="rgb(255,196,119)" style="transform: none;"><g style="transform: none;"><path id="po583m3Vc" d="M4380 4785 c0 -33 2 -35 35 -35 33 0 35 2 35 35 0 33 -2 35 -35 35 -33 0 -35 -2 -35 -35z"/><path id="pAJT0QYmA" d="M4580 4786 c0 -36 15 -46 73 -46 24 0 27 4 27 34 0 36 -15 46 -72 46 -25 0 -28 -4 -28 -34z"/><path id="p189Yp01oY" d="M233 4402 c12 -182 66 -301 192 -428 87 -88 177 -140 290 -169 79 -20 291 -20 370 0 234 60 426 262 470 498 8 43 15 105 15 138 l0 59 -110 0 -110 0 0 -49 c0 -153 -114 -326 -263 -399 -127 -63 -235 -64 -363 -3 -157 74 -274 246 -274 402 l0 49 -112 0 -111 0 6 -98z"/><path id="pY85hHmoI" d="M4260 4465 c0 -33 2 -35 35 -35 33 0 35 2 35 35 0 33 -2 35 -35 35 -33 0 -35 -2 -35 -35z"/><path id="p10FJCIJhl" d="M2185 4421 c-8 -27 -79 -89 -110 -97 -20 -5 -25 -12 -25 -39 0 -27 5 -34 25 -39 32 -8 92 -61 111 -98 12 -23 14 -45 9 -94 -6 -55 -10 -64 -27 -64 -11 0 -22 -8 -25 -18 -2 -11 -22 -23 -49 -31 -42 -13 -44 -15 -44 -50 0 -34 3 -38 38 -50 20 -8 43 -22 50 -32 7 -11 21 -19 32 -19 15 0 19 -11 25 -72 5 -50 4 -73 -4 -76 -6 -2 -11 -10 -11 -18 0 -8 -4 -14 -10 -14 -5 0 -10 -9 -10 -20 0 -13 -7 -20 -20 -20 -14 0 -20 -7 -20 -24 0 -22 -3 -23 -45 -18 l-45 5 0 -34 c0 -30 4 -36 38 -48 20 -7 55 -15 77 -17 l40 -5 -29 26 c-15 14 -41 29 -57 32 -29 6 -29 6 19 28 81 37 131 129 116 210 -10 56 -57 120 -103 141 -40 19 -53 34 -29 34 26 0 87 54 109 96 l24 44 132 0 c112 0 133 -2 133 -15 0 -8 7 -15 15 -15 13 0 15 31 15 215 0 184 -2 215 -15 215 -8 0 -15 -7 -15 -15 0 -13 -22 -15 -140 -15 -118 0 -140 2 -140 15 0 22 -28 18 -35 -4z"/><path id="p1HpgAmTpu" d="M2180 3385 c0 -31 3 -35 26 -35 14 0 24 3 22 8 -35 73 -48 80 -48 27z"/><path id="p13CvK6Rby" d="M2200 3300 c0 -43 23 -57 33 -20 7 28 -3 60 -19 60 -10 0 -14 -13 -14 -40z"/><path id="p8ucelagu" d="M2176 3234 c-3 -9 -6 -27 -6 -40 0 -20 -5 -24 -30 -24 -16 0 -30 -4 -30 -9 0 -5 -18 -12 -40 -16 -30 -5 -40 -11 -40 -26 0 -25 32 -25 85 0 46 21 89 64 104 104 10 25 9 27 -13 27 -13 0 -27 -7 -30 -16z"/><path id="pt7dHCNgZ" d="M4260 3175 c0 -33 2 -35 35 -35 33 0 35 2 35 35 0 33 -2 35 -35 35 -33 0 -35 -2 -35 -35z"/><path id="pQNw9cYmf" d="M1000 3120 c0 -5 5 -10 10 -10 7 0 10 -466 10 -1379 0 -1354 0 -1380 20 -1444 21 -67 73 -146 125 -189 32 -27 127 -78 145 -78 7 0 10 487 10 1540 0 1362 2 1540 15 1540 8 0 15 7 15 15 0 13 -26 15 -175 15 -110 0 -175 -4 -175 -10z"/><path id="pWn8wH4TU" d="M4260 3075 c0 -33 2 -35 35 -35 33 0 35 2 35 35 0 33 -2 35 -35 35 -33 0 -35 -2 -35 -35z"/><path id="pt8CXtw0u" d="M4350 2995 l0 -35 165 0 165 0 0 35 0 35 -165 0 -165 0 0 -35z"/><path id="pyPTJZ7bv" d="M3472 713 c-39 -19 -70 -59 -78 -102 -6 -26 -4 -31 14 -31 13 0 22 9 26 25 8 31 50 73 81 81 16 4 25 13 25 25 0 23 -24 24 -68 2z"/></g></g><g id="l12JBReNTijFavcVKTk9wKb" fill="rgb(255,182,85)" style="transform: none;"><g style="transform: none;"><path id="p15dmBP0mz" d="M4570 4785 c0 -33 2 -35 35 -35 33 0 35 2 35 35 0 33 -2 35 -35 35 -33 0 -35 -2 -35 -35z"/><path id="pwQY551TR" d="M4343 4803 c-7 -2 -13 -20 -13 -39 0 -32 2 -34 33 -34 44 0 56 10 55 48 -1 29 -4 32 -32 31 -17 0 -37 -3 -43 -6z"/><path id="p1094HkRg9" d="M4670 4725 c0 -33 2 -35 35 -35 33 0 35 2 35 35 0 33 -2 35 -35 35 -33 0 -35 -2 -35 -35z"/><path id="p10VGFh11t" d="M4270 4685 c0 -33 2 -35 35 -35 33 0 35 2 35 35 0 33 -2 35 -35 35 -33 0 -35 -2 -35 -35z"/><path id="pZVCKs1Hi" d="M230 4475 c0 -24 5 -35 15 -35 8 0 15 7 15 15 0 12 16 15 80 15 64 0 80 -3 80 -15 0 -8 7 -15 15 -15 10 0 15 11 15 35 l0 35 -110 0 -110 0 0 -35z"/><path id="plKqdt5RK" d="M1350 4475 c0 -24 5 -35 15 -35 8 0 15 7 15 15 0 12 16 15 80 15 64 0 80 -3 80 -15 0 -8 7 -15 15 -15 10 0 15 11 15 35 l0 35 -110 0 -110 0 0 -35z"/><path id="p394vHgxk" d="M4260 4135 l0 -355 35 0 35 0 0 355 c0 301 -2 355 -14 355 -8 0 -17 -8 -19 -17 -4 -17 -5 -17 -6 0 0 9 -8 17 -16 17 -13 0 -15 -46 -15 -355z"/><path id="p1HKyDaC8I" d="M230 4398 c0 -17 5 -60 11 -95 10 -55 14 -63 33 -63 22 0 23 1 9 58 -7 31 -15 74 -18 95 -7 47 -35 52 -35 5z"/><path id="phYaUQUFl" d="M1535 4383 c-28 -167 -78 -267 -190 -379 -127 -128 -262 -184 -445 -184 -113 0 -188 17 -290 67 -94 46 -220 167 -268 261 -18 34 -37 62 -43 62 -5 0 -9 -16 -9 -35 0 -28 4 -35 20 -35 16 0 20 -7 20 -35 0 -19 5 -35 10 -35 6 0 10 -7 10 -15 0 -8 9 -15 20 -15 14 0 20 -7 20 -23 0 -29 49 -77 78 -77 15 0 22 -6 22 -20 0 -11 7 -20 15 -20 8 0 15 -4 15 -10 0 -5 16 -10 35 -10 28 0 35 -4 35 -20 0 -15 7 -20 25 -20 14 0 25 -3 25 -8 0 -25 199 -56 315 -49 122 8 275 54 275 83 0 8 10 14 25 14 14 0 25 5 25 10 0 6 7 10 15 10 8 0 15 9 15 20 0 14 7 20 22 20 29 0 78 48 78 77 0 16 6 23 20 23 11 0 20 7 20 15 0 8 5 15 10 15 6 0 10 7 10 15 0 8 4 15 8 15 11 0 42 66 42 90 0 10 4 20 10 22 11 3 40 134 40 179 0 44 -28 38 -35 -8z"/><path id="p6yqOLrbz" d="M2170 4380 c0 -27 -3 -30 -30 -30 -16 0 -30 -4 -30 -9 0 -5 -16 -12 -35 -15 -31 -6 -35 -10 -35 -39 0 -28 5 -34 43 -49 23 -10 52 -18 65 -18 17 0 22 -6 22 -27 1 -16 7 -39 15 -53 8 -14 14 -44 15 -67 0 -54 26 -60 35 -10 15 76 -47 182 -120 208 l-34 13 37 16 c36 16 102 81 102 100 0 6 -11 10 -25 10 -21 0 -25 -5 -25 -30z"/><path id="pewaYGt2m" d="M420 4387 c0 -25 32 -122 53 -159 45 -81 48 -19 5 104 -16 49 -28 68 -40 68 -10 0 -18 -6 -18 -13z"/><path id="pHAePmFCx" d="M1340 4365 c0 -40 24 -49 34 -12 10 37 7 47 -14 47 -16 0 -20 -7 -20 -35z"/><path id="pDpsMBdZA" d="M1310 4270 c0 -20 -5 -30 -15 -30 -8 0 -15 -7 -15 -15 0 -8 -4 -15 -10 -15 -5 0 -10 -11 -10 -25 0 -18 -5 -25 -18 -25 -23 0 -52 -30 -52 -53 0 -11 -8 -17 -25 -17 -16 0 -25 -6 -25 -15 0 -9 -9 -15 -24 -15 -14 0 -31 -7 -40 -15 -8 -8 -24 -15 -35 -15 -14 0 -21 -6 -21 -20 0 -28 22 -25 97 12 98 48 195 153 232 251 10 25 9 27 -14 27 -21 0 -25 -5 -25 -30z"/><path id="pqu3nihIB" d="M531 4142 c24 -33 123 -112 141 -112 5 0 8 11 8 25 0 16 -6 25 -15 25 -8 0 -15 5 -15 10 0 6 -13 10 -29 10 -25 0 -30 4 -33 28 -2 23 -8 28 -37 30 -31 3 -32 2 -20 -16z"/><path id="pyIFsi6as" d="M692 4028 c6 -16 80 -44 141 -53 43 -7 47 -5 47 13 0 17 -9 21 -60 27 -33 4 -60 11 -60 16 0 5 -16 9 -36 9 -24 0 -34 -4 -32 -12z"/><path id="poU9TpY9N" d="M2170 3983 l1 -38 24 28 c32 36 31 47 0 47 -22 0 -25 -4 -25 -37z"/><path id="pUyImYfUG" d="M920 3990 c0 -21 16 -25 58 -14 39 11 27 34 -18 34 -33 0 -40 -3 -40 -20z"/><path id="pdQwamEMb" d="M2170 3802 c0 -45 9 -62 36 -62 21 0 22 2 13 29 -6 16 -19 37 -30 47 -18 17 -19 16 -19 -14z"/><path id="poBNMQVBv" d="M4686 3794 c-3 -9 -6 -29 -6 -45 0 -26 3 -29 34 -29 37 0 46 12 46 61 0 26 -3 29 -34 29 -22 0 -36 -6 -40 -16z"/><path id="pjmqm8zqj" d="M4332 3705 c-3 -34 -1 -35 33 -35 33 0 35 2 35 35 0 33 -2 35 -33 35 -31 0 -33 -3 -35 -35z"/><path id="pdJyLOgvZ" d="M4600 3695 c0 -33 2 -35 35 -35 33 0 34 1 33 35 -1 33 -3 35 -35 35 -31 0 -33 -2 -33 -35z"/><path id="p2Kl2agTI" d="M2190 3635 c0 -25 -4 -35 -16 -35 -19 0 -44 -24 -44 -43 0 -23 -74 -27 -467 -27 l-363 0 0 -35 0 -35 364 0 c372 0 456 -4 456 -24 0 -14 44 -56 59 -56 6 0 11 -13 11 -30 0 -23 4 -30 20 -30 26 0 25 25 -3 74 -26 46 -58 72 -113 91 -21 8 -30 14 -20 15 36 0 105 50 131 94 30 52 32 76 5 76 -16 0 -20 -7 -20 -35z"/><path id="p11KSrzcoc" d="M4680 3401 c0 -49 9 -61 46 -61 31 0 34 3 34 29 0 49 -9 61 -46 61 -31 0 -34 -3 -34 -29z"/><path id="p10J1IIarn" d="M2190 3250 c0 -20 -5 -30 -15 -30 -8 0 -15 -9 -15 -20 0 -13 -7 -20 -20 -20 -11 0 -20 -4 -20 -10 0 -5 -7 -10 -15 -10 -8 0 -15 -4 -15 -10 0 -6 -140 -10 -400 -10 -393 0 -400 0 -400 -20 0 -20 7 -20 378 -20 241 0 391 4 417 11 54 15 101 52 125 99 25 50 25 70 0 70 -16 0 -20 -7 -20 -30z"/><path id="pa61FXP5S" d="M4260 3125 l0 -75 35 0 35 0 0 75 0 75 -35 0 -35 0 0 -75z"/><path id="pITlfydEU" d="M4310 3005 c0 -33 2 -35 35 -35 33 0 35 2 35 35 0 33 -2 35 -35 35 -33 0 -35 -2 -35 -35z"/><path id="p17RgAM0ll" d="M4650 3005 c0 -33 2 -35 35 -35 33 0 35 2 35 35 0 33 -2 35 -35 35 -33 0 -35 -2 -35 -35z"/><path id="p1AJK8Hll9" d="M3485 716 c-37 -16 -70 -52 -84 -89 -12 -30 -16 -577 -5 -577 25 0 104 74 316 296 226 237 328 354 328 375 0 15 -520 10 -555 -5z"/></g></g><g id="l6BpihM6g7b0JKAFKblgCvv" fill="rgb(124,204,146)" style="transform: none;"><g style="transform: none;"><path id="p1AcI7NQR0" d="M3130 4944 c-192 -51 -346 -203 -407 -404 -16 -50 -17 -165 -21 -1235 -3 -1109 1 -1307 24 -1393 6 -19 3 -22 -25 -22 -29 0 -31 2 -31 35 0 24 -6 39 -20 47 -11 7 -20 18 -20 25 0 6 -4 13 -8 15 -21 9 -82 179 -82 231 0 20 -5 27 -20 27 -24 0 -26 -22 -9 -102 43 -208 236 -398 444 -438 43 -8 291 -10 870 -8 734 3 816 5 869 21 199 59 354 221 401 420 22 95 22 2421 0 2516 -20 82 -65 173 -115 231 l-38 45 -879 2 c-743 2 -886 0 -933 -13z m141 -213 l29 -29 0 -132 0 -132 -29 -29 -29 -29 -137 0 c-131 0 -137 1 -160 25 -24 23 -25 29 -25 162 1 190 3 192 193 193 l129 0 29 -29z m696 5 c28 -24 28 -25 31 -160 l4 -136 -30 -30 -30 -30 -137 0 c-131 0 -137 1 -160 25 -24 23 -25 29 -25 165 0 136 1 142 25 165 23 24 29 25 159 25 128 0 136 -1 163 -24z m653 6 c19 -9 45 -32 57 -51 l23 -34 0 -429 0 -428 -34 -38 -34 -37 -100 -3 c-125 -5 -161 9 -192 73 -21 43 -21 54 -18 453 l3 409 29 37 c16 21 43 44 60 52 46 20 163 18 206 -4z m-323 -769 c-1 -98 -2 -20 -2 172 -1 193 1 273 2 178 2 -94 2 -252 0 -350z m-1026 98 l29 -29 0 -130 c0 -126 -1 -132 -26 -161 l-26 -31 -139 0 c-135 0 -141 1 -164 25 -24 23 -25 29 -25 162 1 190 3 192 193 193 l129 0 29 -29z m696 5 c28 -24 28 -25 31 -160 l4 -136 -30 -30 -30 -30 -137 0 c-131 0 -137 1 -160 25 -24 23 -25 29 -25 163 0 189 2 191 192 192 120 0 128 -1 155 -24z m-728 -677 c50 -18 61 -51 61 -191 0 -181 -13 -192 -210 -186 -119 3 -122 4 -146 31 -23 27 -24 35 -24 158 0 74 5 139 11 150 18 35 67 48 175 49 56 0 115 -5 133 -11z m718 -9 c35 -23 43 -55 43 -176 0 -183 -16 -198 -208 -192 -111 3 -122 5 -146 27 -25 24 -26 27 -26 161 0 123 2 140 20 163 26 33 41 36 180 33 79 -1 122 -6 137 -16z m718 -15 c24 -23 25 -29 25 -163 0 -136 0 -139 -26 -163 -24 -23 -32 -24 -160 -24 -132 0 -134 0 -161 28 -27 27 -28 28 -28 161 0 129 1 135 24 160 24 26 27 26 163 26 134 0 140 -1 163 -25z m-378 -277 c-2 -18 -4 -6 -4 27 0 33 2 48 4 33 2 -15 2 -42 0 -60z m285 -105 c-40 -2 -103 -2 -140 0 -37 2 -4 3 73 3 77 0 107 -2 67 -3z m-27 -324 c56 -16 92 -44 117 -92 18 -35 22 -64 26 -166 7 -196 -20 -270 -113 -312 -38 -17 -83 -19 -775 -19 -694 0 -737 1 -775 19 -47 22 -89 64 -104 104 -18 46 -14 311 4 355 17 40 48 77 80 95 28 16 267 23 935 25 388 1 578 -2 605 -9z"/><path id="pzFAPA25L" d="M1880 2891 c0 -11 9 -22 19 -26 21 -6 41 -53 41 -96 0 -26 3 -29 50 -35 32 -4 50 -11 50 -20 0 -9 12 -14 37 -14 35 0 35 1 19 19 -15 16 -62 40 -107 54 -11 4 -18 21 -22 53 -3 33 -12 54 -27 66 -30 24 -60 23 -60 -1z"/><path id="p10AoylDMR" d="M1837 2882 c-23 -26 -22 -52 3 -52 16 0 20 7 20 35 0 40 -1 41 -23 17z"/><path id="pC1OLIDfL" d="M1820 2796 c0 -8 -13 -17 -30 -21 -43 -9 -39 -35 5 -35 33 0 35 2 35 35 0 19 -2 35 -5 35 -3 0 -5 -6 -5 -14z"/><path id="p9aYJW6MC" d="M1646 2700 c-51 -48 -62 -79 -42 -119 24 -45 70 -55 101 -21 18 20 17 20 -11 20 -46 1 -61 19 -56 68 4 40 5 42 38 42 30 0 34 3 34 25 0 35 -13 31 -64 -15z"/><path id="pmxV7oADI" d="M1820 2661 c0 -18 7 -20 60 -20 52 1 60 3 60 20 0 17 -8 19 -60 19 -53 0 -60 -2 -60 -19z"/><path id="p142VH8iz4" d="M2120 2658 c0 -13 8 -49 17 -80 14 -43 23 -58 37 -58 16 0 17 5 11 38 -8 45 -43 122 -56 122 -5 0 -9 -10 -9 -22z"/><path id="pPHuWKTvc" d="M1730 2620 l0 -30 35 22 c44 29 44 38 0 38 -32 0 -35 -2 -35 -30z"/><path id="piHPSOl8K" d="M2020 2588 c14 -23 20 -51 20 -90 0 -53 2 -58 21 -58 21 0 22 3 16 73 -7 95 -13 107 -48 107 l-29 0 20 -32z"/><path id="pvpJ5gEcs" d="M2150 2453 c0 -26 -32 -113 -42 -113 -4 0 -8 -11 -8 -25 0 -20 -5 -25 -25 -25 -21 0 -25 -5 -25 -31 l0 -30 30 21 c44 31 80 82 96 136 19 65 18 84 -6 84 -12 0 -20 -7 -20 -17z"/><path id="p52mLluXl" d="M2009 2394 c-13 -14 -36 -33 -51 -42 -37 -22 -35 -32 7 -32 19 0 35 4 35 9 0 5 9 11 20 14 15 4 20 14 20 41 0 20 -1 36 -3 36 -2 0 -14 -12 -28 -26z"/><path id="p1CWw7ikcQ" d="M1823 2295 c-43 -18 -42 -35 2 -35 31 0 35 3 35 25 0 14 -1 25 -2 25 -2 -1 -18 -7 -35 -15z"/><path id="p1CGHNWKFZ" d="M1698 2223 c-64 -58 -100 -153 -58 -153 14 0 21 9 26 35 3 19 10 35 15 35 5 0 9 16 9 35 0 33 2 35 35 35 31 0 35 3 35 25 0 34 -13 31 -62 -12z"/><path id="p5asAjCBs" d="M1940 2205 c0 -24 1 -25 32 -12 46 19 48 37 4 37 -32 0 -36 -3 -36 -25z"/><path id="pdNKHdQvQ" d="M1740 2085 c0 -19 4 -35 9 -35 5 0 18 16 30 35 l20 35 -29 0 c-28 0 -30 -3 -30 -35z"/><path id="p90qnG3ZV" d="M1730 1995 c0 -30 3 -35 24 -35 23 0 24 2 13 35 -6 19 -16 35 -24 35 -8 0 -13 -13 -13 -35z"/><path id="p1DoU2w7zJ" d="M1620 1982 c0 -10 11 -41 25 -69 26 -52 71 -95 119 -113 24 -9 26 -7 26 15 0 20 -6 27 -28 31 -15 3 -32 15 -37 27 -6 12 -20 23 -32 25 -17 3 -23 10 -23 30 0 47 -11 72 -31 72 -12 0 -19 -7 -19 -18z"/><path id="p12ajMqoOr" d="M2068 1949 c-26 -15 -22 -29 8 -29 14 0 32 -6 40 -14 14 -15 9 -46 -7 -46 -5 0 -9 -6 -9 -13 0 -9 -27 -18 -79 -27 l-79 -13 -6 -51 c-3 -28 -10 -52 -16 -54 -13 -5 -13 -52 -1 -52 26 0 46 38 53 99 3 21 11 26 58 36 128 26 174 93 107 155 -23 22 -43 25 -69 9z"/><path id="pi2iaQl7L" d="M1790 1917 c0 -26 20 -37 73 -37 40 0 34 25 -10 39 -21 7 -44 15 -50 17 -9 4 -13 -3 -13 -19z"/><path id="pcV5Czjpc" d="M1968 1913 c-33 -8 -20 -33 17 -33 28 0 35 4 35 20 0 20 -14 23 -52 13z"/><path id="p11DTpodic" d="M1820 1702 c0 -11 9 -27 20 -37 20 -18 20 -17 20 18 0 30 -4 37 -20 37 -13 0 -20 -7 -20 -18z"/><path id="pW1dIMpz6" d="M1555 1500 c-18 -20 -17 -20 18 -20 30 0 37 4 37 20 0 13 -7 20 -18 20 -11 0 -27 -9 -37 -20z"/><path id="p1DHWplB2a" d="M1850 1500 c0 -16 7 -20 37 -20 35 0 36 0 18 20 -10 11 -26 20 -37 20 -11 0 -18 -7 -18 -20z"/><path id="pSDLnclMk" d="M2117 1508 c-33 -26 -42 -98 -11 -98 8 0 14 10 14 24 0 13 7 26 15 30 15 6 22 56 7 56 -5 0 -16 -6 -25 -12z"/><path id="pUA3ProsD" d="M1890 1425 l0 -25 -149 0 c-123 0 -150 3 -155 15 -6 17 -56 21 -56 5 0 -19 39 -49 73 -55 19 -4 89 -5 155 -3 111 3 122 5 146 27 31 30 34 61 6 61 -15 0 -20 -7 -20 -25z"/><path id="pgOyQ1YnM" d="M2130 1386 c0 -7 10 -16 23 -20 29 -8 1315 -8 1345 0 12 4 22 13 22 20 0 12 -110 14 -695 14 -585 0 -695 -2 -695 -14z"/><path id="peFfkinsf" d="M1578 1129 c-30 -17 -20 -29 22 -29 33 0 40 3 40 20 0 22 -32 27 -62 9z"/><path id="pfoSippqL" d="M2950 1120 c0 -17 7 -20 40 -20 43 0 52 13 21 30 -33 17 -61 12 -61 -10z"/><path id="p12E6lR3NG" d="M3268 1129 c-30 -17 -20 -29 22 -29 33 0 40 3 40 20 0 22 -32 27 -62 9z"/><path id="pnTh6N1oS" d="M3460 1120 c0 -17 7 -20 40 -20 43 0 52 13 21 30 -33 17 -61 12 -61 -10z"/><path id="pTcfU5r3x" d="M3530 1035 c0 -39 14 -46 30 -16 16 31 12 51 -10 51 -16 0 -20 -7 -20 -35z"/><path id="p2yVIbJA5" d="M1530 1042 c0 -23 40 -62 63 -62 10 0 17 8 17 20 0 13 -7 20 -20 20 -13 0 -20 7 -20 20 0 13 -7 20 -20 20 -13 0 -20 -7 -20 -18z"/><path id="pfk8qF00u" d="M3020 1023 c0 -35 0 -36 20 -18 11 10 20 26 20 37 0 11 -7 18 -20 18 -16 0 -20 -7 -20 -37z"/><path id="p910DuDVf" d="M3220 1042 c0 -11 9 -27 20 -37 20 -18 20 -17 20 18 0 30 -4 37 -20 37 -13 0 -20 -7 -20 -18z"/></g></g><g id="l5ZrfEeZaITh4prx6wEf3XW" fill="rgb(255,167,51)" style="transform: none;"><g style="transform: none;"><path id="p1GoRfLfxK" d="M566 5048 c-120 -64 -199 -148 -264 -278 -58 -118 -71 -167 -72 -257 0 -49 3 -63 15 -63 8 0 15 7 15 15 0 12 16 15 80 15 64 0 80 -3 80 -15 0 -8 6 -15 14 -15 8 0 18 21 25 58 38 195 195 352 384 385 125 21 264 -30 366 -133 66 -67 105 -139 128 -238 10 -43 22 -72 30 -72 7 0 13 7 13 15 0 12 16 15 80 15 64 0 80 -3 80 -15 0 -8 7 -15 15 -15 19 0 20 79 4 163 -11 51 -14 57 -38 58 -24 1 -24 1 -4 7 l22 7 -22 55 c-46 111 -158 240 -259 296 -63 34 -123 41 -418 49 l-195 5 -79 -42z"/><path id="pbqFBZIML" d="M4408 4783 c-10 -2 -18 -11 -18 -19 0 -11 23 -14 120 -14 96 0 120 3 120 14 0 7 -10 16 -22 20 -26 7 -174 6 -200 -1z"/><path id="pDvfRqJa3" d="M4640 4747 c0 -12 9 -29 20 -37 10 -8 22 -27 25 -42 7 -31 45 -41 45 -12 0 26 -31 84 -54 99 -28 21 -36 19 -36 -8z"/><path id="p11IoNNJMB" d="M4328 4730 l-28 -35 26 -3 c33 -4 36 -1 32 39 l-3 34 -27 -35z"/><path id="p1FVy0MPEQ" d="M2180 4395 c0 -39 6 -43 26 -17 20 26 17 52 -6 52 -16 0 -20 -7 -20 -35z"/><path id="p16EyXqipL" d="M420 4404 c0 -37 23 -104 36 -104 15 0 17 24 8 83 -5 27 -11 37 -25 37 -11 0 -19 -7 -19 -16z"/><path id="plEaSeNrP" d="M1330 4348 c-7 -35 -20 -69 -27 -76 -7 -7 -13 -27 -13 -43 0 -22 -5 -29 -20 -29 -16 0 -20 -7 -20 -36 0 -42 9 -38 50 20 35 52 65 125 75 184 6 37 5 42 -12 42 -15 0 -22 -13 -33 -62z"/><path id="pJBkwNEG8" d="M230 4381 c0 -10 3 -39 6 -65 5 -37 11 -46 26 -46 21 0 21 5 2 103 -6 30 -34 37 -34 8z"/><path id="pGQhcpnc6" d="M1531 4350 c-14 -67 -14 -70 8 -70 18 0 31 39 31 98 0 44 -28 23 -39 -28z"/><path id="p16zuWBQPy" d="M2090 4330 c0 -5 -13 -10 -30 -10 -27 0 -30 -3 -30 -34 0 -35 15 -46 68 -46 13 0 22 -6 22 -15 0 -8 9 -15 20 -15 13 0 20 -7 20 -20 0 -11 6 -20 14 -20 17 0 29 -81 16 -116 -12 -32 -13 -84 -1 -84 17 0 43 73 43 120 -1 51 -26 113 -59 142 -10 9 -39 26 -63 37 -25 11 -39 21 -32 21 21 0 82 31 82 41 0 5 -16 9 -35 9 -19 0 -35 -4 -35 -10z"/><path id="p8tgKZ2QR" d="M1506 4241 c-3 -4 -10 -20 -15 -35 -10 -24 -8 -26 14 -26 22 0 25 4 25 35 0 33 -12 46 -24 26z"/><path id="poCDZ19ZK" d="M280 4195 c0 -19 5 -35 10 -35 6 0 10 -9 10 -20 0 -13 7 -20 20 -20 16 0 20 -7 20 -35 0 -28 4 -35 20 -35 15 0 20 -7 20 -25 0 -21 5 -25 31 -25 24 0 29 3 22 13 -5 6 -24 30 -41 52 -17 22 -45 68 -62 103 -17 34 -35 62 -41 62 -5 0 -9 -16 -9 -35z"/><path id="pCu8Ff9CX" d="M480 4222 c0 -5 15 -29 33 -53 l32 -44 3 35 c2 19 -1 36 -7 38 -6 2 -11 10 -11 18 0 8 -10 14 -25 14 -14 0 -25 -4 -25 -8z"/><path id="pDdlQ9V02" d="M1433 4102 c-18 -26 -42 -60 -54 -75 l-22 -28 34 3 c26 2 35 8 37 26 2 12 10 22 18 22 8 0 14 7 14 15 0 8 5 15 10 15 6 0 10 16 10 35 0 19 -3 35 -7 35 -5 0 -22 -22 -40 -48z"/><path id="p12aBNPAjt" d="M600 4079 c90 -78 243 -120 367 -102 75 12 143 36 143 52 0 14 -67 14 -72 1 -6 -18 -154 -24 -229 -10 -38 7 -69 16 -69 20 0 11 -48 30 -75 30 -18 0 -25 5 -25 20 0 17 -7 20 -37 20 l-38 -1 35 -30z"/><path id="pMzVrz28S" d="M1150 4090 c0 -5 -7 -10 -15 -10 -9 0 -15 -9 -15 -25 0 -14 4 -25 8 -25 11 0 92 58 92 65 0 3 -16 5 -35 5 -19 0 -35 -4 -35 -10z"/><path id="pjjN8XlhD" d="M450 3961 c0 -29 3 -31 36 -31 39 0 38 9 -6 40 l-30 21 0 -30z"/><path id="prcJ7cIpm" d="M1301 3955 c-92 -73 -206 -121 -333 -140 -53 -8 -52 -35 0 -35 48 0 196 37 200 50 2 6 15 10 28 10 13 0 24 4 24 9 0 5 11 12 25 15 14 4 25 11 25 16 0 6 7 10 15 10 8 0 15 7 15 15 0 8 9 15 20 15 23 0 33 18 28 49 -3 19 -6 18 -47 -14z"/><path id="p4GK6VpyA" d="M2110 3951 c0 -5 -18 -12 -40 -16 -39 -7 -40 -8 -40 -45 0 -37 1 -38 40 -45 22 -4 40 -11 40 -16 0 -5 11 -9 25 -9 20 0 25 -5 25 -25 0 -16 6 -25 15 -25 10 0 15 -10 15 -30 0 -23 4 -30 20 -30 60 0 -34 148 -106 166 -33 8 -30 18 10 32 18 7 41 21 51 32 18 20 17 20 -18 20 -21 0 -37 -4 -37 -9z"/><path id="pxbNRaYtO" d="M550 3885 c0 -20 6 -27 30 -31 17 -4 30 -10 30 -14 0 -4 14 -10 30 -14 17 -3 44 -9 60 -12 40 -8 42 21 3 31 -16 3 -54 20 -86 36 -32 16 -60 29 -62 29 -3 0 -5 -11 -5 -25z"/><path id="p18neQiPpa" d="M740 3812 c0 -15 9 -21 46 -26 72 -9 94 -8 94 8 0 14 -14 19 -97 31 -38 6 -43 5 -43 -13z"/><path id="pJaGzwJIt" d="M4690 3785 c0 -39 14 -46 30 -16 16 31 12 51 -10 51 -16 0 -20 -7 -20 -35z"/><path id="pW86GNXth" d="M4300 3791 c0 -11 11 -33 25 -48 l24 -28 1 32 c0 44 -9 63 -31 63 -12 0 -19 -7 -19 -19z"/><path id="prMTznXTU" d="M4360 3720 c0 -13 34 -30 59 -30 14 0 21 6 21 20 0 17 -7 20 -40 20 -22 0 -40 -4 -40 -10z"/><path id="pFegTSjzp" d="M4590 3710 c0 -21 10 -24 48 -14 36 10 27 34 -13 34 -28 0 -35 -4 -35 -20z"/><path id="p5TUvDRij" d="M2179 3635 c-7 -25 -19 -45 -26 -45 -7 0 -13 -6 -13 -13 0 -7 -20 -19 -45 -26 -25 -7 -45 -18 -45 -24 0 -7 -161 -8 -530 -4 -458 6 -530 5 -530 -7 0 -8 8 -17 18 -19 9 -3 -36 -5 -101 -6 -136 -1 -166 -11 -219 -69 -78 -86 -60 -214 40 -283 32 -22 49 -25 181 -30 80 -3 381 -4 669 -1 l523 5 43 27 c115 73 114 241 -2 321 l-35 24 -391 5 -391 5 391 5 390 5 36 24 c43 29 75 76 84 119 6 28 4 32 -14 32 -15 0 -23 -11 -33 -45z"/><path id="py8VySIXt" d="M4332 3418 c-20 -20 -14 -28 23 -28 28 0 35 4 35 20 0 23 -38 28 -58 8z"/><path id="pPZcKMbvW" d="M4640 3410 c0 -21 33 -35 67 -28 16 3 16 5 -5 26 -28 28 -62 29 -62 2z"/><path id="pGMGhzaBL" d="M4300 3062 c0 -11 9 -27 20 -37 20 -18 20 -17 20 18 0 30 -4 37 -20 37 -13 0 -20 -7 -20 -18z"/></g></g><g id="l5gxVEePhucJdqd1BGjjJ1b" fill="rgb(61,154,226)" style="transform: none;"><g style="transform: none;"><path id="peOrSbMqn" d="M3300 2703 c-63 -5 -85 -20 -111 -78 -16 -35 -19 -67 -19 -245 0 -183 3 -210 20 -249 l20 -43 -97 4 c-63 3 -98 8 -101 16 -2 7 -16 12 -32 12 -24 0 -29 5 -33 33 -16 87 -19 97 -38 97 -13 0 -19 -7 -19 -24 0 -61 47 -126 115 -157 38 -18 81 -19 805 -19 721 0 767 1 805 19 97 43 119 112 113 341 -3 135 -7 160 -26 197 -25 48 -61 76 -117 92 -38 10 -1140 13 -1285 4z"/><path id="p1AaJCGJdm" d="M2995 2686 c-39 -17 -70 -52 -90 -98 -21 -51 -20 -78 4 -78 15 0 21 10 26 40 4 22 11 40 16 40 5 0 9 9 9 20 0 11 5 20 12 20 27 0 87 36 88 53 0 20 -23 22 -65 3z"/></g></g><g id="l20Txe6yPmseY2N3KRRmQsD" fill="rgb(255,152,17)" style="transform: none;"><g style="transform: none;"><path id="p3hBB2ZSr" d="M590 5045 c0 -29 2 -30 40 -10 40 21 38 35 -5 35 -31 0 -35 -3 -35 -25z"/><path id="pvylYEBcm" d="M1100 5066 c0 -2 14 -9 30 -15 24 -8 30 -7 30 5 0 9 -10 14 -30 14 -16 0 -30 -2 -30 -4z"/><path id="pZRyceQOK" d="M950 4910 c0 -16 9 -21 50 -26 28 -4 50 -10 50 -15 0 -5 14 -9 30 -9 20 0 30 -5 30 -15 0 -10 11 -15 35 -15 30 0 35 -3 35 -23 0 -25 41 -67 65 -67 9 0 15 -10 15 -25 0 -16 6 -25 15 -25 9 0 15 -9 15 -22 0 -34 14 -50 39 -46 l22 3 -26 49 c-61 114 -162 199 -282 236 -81 25 -93 25 -93 0z"/><path id="p17jZ78JpF" d="M731 4902 c-57 -22 -65 -42 -17 -42 20 0 36 5 36 10 0 6 14 10 30 10 23 0 30 4 30 20 0 24 -19 25 -79 2z"/><path id="p1Dqh8bivx" d="M1370 4890 c31 -44 40 -45 40 -6 0 33 -2 36 -31 36 l-30 0 21 -30z"/><path id="p188GVVYUg" d="M340 4825 c0 -19 4 -35 9 -35 5 0 18 16 30 35 l20 35 -29 0 c-28 0 -30 -3 -30 -35z"/><path id="pLRqw8fJH" d="M600 4826 c-43 -34 -110 -112 -110 -127 0 -5 11 -9 25 -9 20 0 25 5 25 25 0 18 5 25 20 25 11 0 20 7 20 15 0 8 7 15 15 15 8 0 15 9 15 20 0 15 7 20 25 20 20 0 25 5 25 25 0 33 -9 32 -60 -9z"/><path id="pzZyaHYdI" d="M260 4664 c0 -44 18 -42 37 4 13 31 12 32 -12 32 -22 0 -25 -4 -25 -36z"/><path id="p6ZDqIxVK" d="M1520 4630 c0 -37 24 -110 36 -110 15 0 17 23 8 83 -5 27 -11 37 -25 37 -11 0 -19 -4 -19 -10z"/><path id="p1ATcW7Z51" d="M4344 4611 c-18 -11 -35 -25 -40 -32 -4 -7 -7 -189 -5 -403 3 -423 4 -428 58 -463 40 -27 276 -26 317 0 55 36 56 51 54 479 l-3 392 -34 23 c-31 21 -45 23 -175 23 -121 0 -145 -3 -172 -19z"/><path id="plqg6F8IO" d="M1330 4581 c0 -10 3 -39 6 -65 5 -36 11 -46 25 -46 22 0 23 11 8 80 -7 31 -16 50 -25 50 -8 0 -14 -8 -14 -19z"/><path id="pFZWde7Ht" d="M426 4528 c-10 -38 -7 -48 14 -48 16 0 20 7 20 35 0 40 -24 49 -34 13z"/><path id="pH9J2O1hq" d="M1340 4385 c0 -40 24 -49 34 -12 10 37 7 47 -14 47 -16 0 -20 -7 -20 -35z"/><path id="pD5AZCMdO" d="M2160 4363 l1 -38 24 28 c32 36 31 47 0 47 -22 0 -25 -4 -25 -37z"/><path id="pGPp33gmQ" d="M230 4355 c0 -28 4 -35 20 -35 21 0 24 10 14 48 -10 36 -34 27 -34 -13z"/><path id="pevfqQq9n" d="M2020 4287 c0 -30 4 -34 50 -50 59 -21 94 -53 111 -102 8 -22 19 -35 31 -35 24 0 23 24 -3 77 -23 47 -58 77 -116 97 l-37 13 34 7 c31 7 32 9 15 16 -11 5 -35 9 -52 9 -31 1 -33 -1 -33 -32z"/><path id="pS3zIIZE1" d="M1510 4258 c-17 -58 -55 -133 -97 -190 l-35 -48 31 0 c24 0 31 4 31 20 0 11 7 20 15 20 9 0 15 9 15 25 0 15 6 25 14 25 17 0 57 92 64 148 4 32 1 42 -10 42 -9 0 -20 -18 -28 -42z"/><path id="p13Dyn7sQM" d="M1270 4193 l1 -38 24 28 c32 36 31 47 0 47 -22 0 -25 -4 -25 -37z"/><path id="pIDjK3wcD" d="M370 4046 c0 -33 2 -36 31 -36 l30 0 -21 30 c-31 44 -40 45 -40 6z"/><path id="pGb9Whhx7" d="M1100 4045 c0 -30 3 -30 41 -8 38 23 37 33 -6 33 -31 0 -35 -3 -35 -25z"/><path id="pN5DGA6nU" d="M1010 4010 c0 -22 20 -26 51 -10 30 16 23 30 -16 30 -28 0 -35 -4 -35 -20z"/><path id="pWt9AIfGo" d="M840 3996 c0 -13 28 -26 58 -26 6 0 12 9 12 20 0 16 -7 20 -35 20 -23 0 -35 -5 -35 -14z"/><path id="ppb1O8wDU" d="M2160 3980 c0 -27 -3 -30 -34 -30 -19 0 -36 -6 -38 -12 -4 -10 -91 -14 -381 -16 l-377 -4 0 26 c0 25 -1 25 -72 -24 -140 -94 -318 -130 -478 -96 -41 9 -85 16 -97 16 -23 0 -32 -15 -13 -22 6 -2 2 -20 -10 -43 -49 -97 -3 -216 102 -260 32 -13 122 -15 673 -15 686 0 675 -1 734 53 33 30 61 94 61 141 0 81 -66 168 -138 182 -42 8 -41 20 3 28 35 7 115 72 115 94 0 7 -11 12 -25 12 -21 0 -25 -5 -25 -30z"/><path id="pAasPVE5y" d="M4320 3267 c-27 -13 -26 -7 -22 -147 2 -60 6 -75 27 -95 24 -25 27 -25 190 -25 163 0 166 0 190 25 23 23 25 31 25 130 0 104 0 106 -26 115 -39 15 -354 12 -384 -3z"/></g></g><g id="l6Dd39aOSU2wXzmc5L5IDER" fill="rgb(238,135,0)" style="transform: none;"><g style="transform: none;"><path id="pe5zYwxTq" d="M618 5077 c-7 -8 -25 -17 -40 -20 -15 -4 -33 -14 -42 -22 -8 -8 -19 -15 -25 -15 -6 0 -11 -6 -11 -14 0 -8 -10 -16 -22 -18 -18 -2 -24 -11 -26 -37 l-4 -35 34 27 c59 48 149 97 222 122 l71 24 -72 1 c-47 0 -76 -5 -85 -13z"/><path id="pTp1R711a" d="M1140 5060 c0 -8 90 -60 105 -60 3 0 5 11 5 23 0 16 -9 28 -25 35 -32 15 -85 16 -85 2z"/><path id="p24SXzaK8" d="M1340 4918 c36 -35 79 -84 95 -110 17 -27 33 -48 38 -48 4 0 7 16 7 35 0 19 -4 35 -10 35 -5 0 -10 7 -10 15 0 8 -9 15 -20 15 -15 0 -20 7 -20 25 0 21 -5 25 -29 25 -26 0 -30 4 -33 33 -3 30 -6 32 -43 35 l-39 3 64 -63z"/><path id="pEOkpBj0A" d="M808 4923 c-10 -2 -18 -12 -19 -21 0 -11 -2 -12 -6 -4 -18 44 -188 -57 -264 -158 -46 -61 -48 -70 -14 -70 16 0 25 6 25 15 0 8 5 15 10 15 6 0 10 11 10 24 0 18 6 25 23 28 14 2 23 11 25 26 3 16 10 22 28 22 17 0 24 6 24 19 0 14 9 20 34 23 l35 4 -37 -41 c-90 -97 -122 -188 -122 -348 0 -171 31 -257 128 -359 48 -50 52 -58 33 -58 -39 0 -17 -24 40 -43 73 -25 205 -26 279 -2 228 74 367 293 332 523 -30 194 -167 348 -353 397 -51 14 -173 18 -211 8z m134 -120 c10 -9 18 -24 18 -34 0 -10 12 -26 28 -36 53 -33 83 -68 97 -115 29 -98 -31 -190 -155 -233 -77 -27 -90 -40 -90 -88 0 -24 5 -48 12 -55 16 -16 129 -16 164 0 23 11 28 10 45 -11 19 -24 19 -24 -1 -46 -11 -12 -39 -27 -60 -34 -27 -8 -40 -18 -40 -30 0 -9 -10 -27 -23 -39 l-23 -22 -23 21 c-12 11 -24 33 -27 47 -4 15 -20 36 -37 47 -68 43 -95 122 -63 183 22 43 58 70 131 101 97 41 105 50 105 115 0 71 -15 86 -86 86 -56 0 -100 -16 -124 -45 -12 -14 -14 -14 -31 1 -11 10 -19 25 -19 35 0 20 53 68 92 81 15 5 30 19 34 31 8 27 33 57 47 57 6 0 19 -7 29 -17z"/><path id="pO5rAYLvd" d="M370 4870 c0 -23 -4 -30 -20 -30 -11 0 -20 -7 -20 -15 0 -8 -4 -15 -8 -15 -13 0 -42 -68 -42 -100 0 -19 -5 -30 -14 -30 -9 0 -18 -19 -25 -50 -15 -70 -14 -100 3 -100 10 0 19 19 26 55 13 61 95 231 136 283 l27 32 -32 0 c-28 0 -31 -3 -31 -30z"/><path id="pcNFji4H8" d="M4369 4765 c-26 -14 -60 -57 -67 -85 -2 -8 -6 -55 -9 -105 l-5 -90 24 35 c46 68 77 80 202 80 125 0 160 -13 196 -72 l20 -33 0 84 c0 98 -22 156 -69 184 -38 22 -251 24 -292 2z"/><path id="pVhAM1J12" d="M1489 4708 c12 -34 41 -36 41 -4 0 21 -5 26 -25 26 -21 0 -23 -3 -16 -22z"/><path id="p0BgccP8z" d="M1514 4648 c3 -13 6 -26 6 -30 0 -5 7 -8 15 -8 10 0 15 10 15 30 0 24 -4 30 -21 30 -17 0 -20 -4 -15 -22z"/><path id="pfa7dCnZj" d="M454 4624 c-14 -34 -34 -122 -34 -150 0 -8 9 -14 20 -14 15 0 20 7 20 29 0 16 7 48 15 71 29 82 11 140 -21 64z"/><path id="p12Hwrkv25" d="M1530 4588 c0 -30 13 -58 26 -58 9 0 14 12 14 35 0 28 -4 35 -20 35 -11 0 -20 -6 -20 -12z"/><path id="p2CN24tz2" d="M425 4394 c18 -125 80 -236 173 -311 61 -50 72 -52 72 -18 0 18 -5 25 -20 25 -11 0 -20 7 -20 15 0 10 -10 15 -30 15 -27 0 -30 3 -30 30 0 18 -6 33 -15 36 -8 4 -15 12 -15 19 0 7 -4 15 -8 17 -14 6 -62 126 -68 172 -5 37 -11 46 -26 46 -18 0 -20 -5 -13 -46z"/><path id="pcXmNAKK6" d="M1530 4333 c-17 -89 -29 -123 -67 -190 -41 -76 -129 -173 -198 -220 l-50 -34 435 3 c430 3 435 3 477 26 84 44 123 147 89 235 -21 55 -60 93 -122 117 -33 13 -41 19 -26 20 35 0 98 36 122 70 l21 30 -29 0 c-28 0 -62 -26 -62 -47 0 -17 -82 -23 -321 -23 l-229 0 0 35 c0 59 -27 44 -40 -22z"/><path id="pzBqfVC4N" d="M233 4328 c4 -29 14 -74 24 -100 13 -38 22 -48 40 -48 l23 0 -24 63 c-12 34 -26 79 -30 100 -5 24 -12 37 -23 37 -13 0 -15 -9 -10 -52z"/><path id="pJsR31EED" d="M310 4135 c0 -19 5 -35 10 -35 6 0 10 -9 10 -20 0 -11 7 -20 15 -20 8 0 15 -9 15 -20 0 -16 7 -20 31 -20 l31 0 -24 33 c-14 17 -35 51 -48 75 -29 51 -40 53 -40 7z"/><path id="pm1xTffhA" d="M460 3949 c0 -22 5 -32 20 -36 11 -3 20 -9 20 -14 0 -5 7 -9 15 -9 8 0 15 -4 15 -10 0 -5 16 -10 35 -10 19 0 35 3 35 8 -1 4 -32 28 -70 55 l-70 47 0 -31z"/><path id="pHkjKClMc" d="M630 3846 c0 -20 6 -24 46 -30 26 -3 70 -6 98 -5 l51 0 -70 18 c-38 10 -82 23 -97 29 -26 11 -28 10 -28 -12z"/><path id="pWlEZcnwL" d="M4326 3412 c-26 -29 -36 -71 -36 -150 l0 -76 31 30 30 29 166 0 165 0 24 -28 24 -28 0 85 c0 47 -5 96 -11 109 -19 41 -50 48 -220 46 -133 -1 -160 -3 -173 -17z"/></g></g><g id="l2bcnZZFOkwZpszzgGcPQ9y" fill="rgb(76,186,104)" style="transform: none;"><g style="transform: none;"><path id="pVfIHD28X" d="M3005 5111 c-226 -28 -411 -188 -482 -417 -17 -56 -18 -124 -18 -1279 0 -1359 -5 -1262 68 -1400 39 -72 145 -180 216 -218 l51 -28 -34 63 c-75 136 -71 52 -71 1398 0 979 3 1215 14 1260 51 207 214 374 417 425 54 14 172 15 900 13 745 -3 844 -5 881 -19 41 -16 42 -16 32 2 -16 30 -123 115 -182 143 -126 62 -89 60 -947 62 -432 1 -812 -1 -845 -5z"/><path id="p18jG7Xtie" d="M2935 4778 c-45 -26 -62 -78 -25 -78 11 0 20 5 20 11 0 16 26 39 44 39 9 0 16 8 16 20 0 23 -24 26 -55 8z"/><path id="p1EMj0SyH7" d="M3230 4770 c0 -12 9 -22 24 -26 17 -4 27 -15 31 -35 5 -20 13 -29 26 -29 30 0 24 46 -10 81 -35 34 -71 39 -71 9z"/><path id="p11mw5kUDC" d="M3615 4765 c-27 -26 -33 -65 -11 -65 19 0 76 57 76 76 0 22 -39 16 -65 -11z"/><path id="pcucHW1Rc" d="M3930 4770 c0 -12 9 -22 24 -26 31 -7 36 -28 36 -141 0 -88 1 -93 21 -93 20 0 21 4 17 116 -3 113 -4 116 -31 140 -35 30 -67 32 -67 4z"/><path id="pVHR0q0om" d="M4293 4565 c0 -44 2 -61 4 -37 2 23 2 59 0 80 -2 20 -4 1 -4 -43z"/><path id="pddzvEVZO" d="M3984 4425 c-5 -28 -11 -35 -30 -35 -17 0 -24 -6 -24 -20 0 -30 36 -25 71 9 34 35 40 81 9 81 -14 0 -21 -9 -26 -35z"/><path id="pZtrJkbyE" d="M3290 4415 c0 -39 14 -46 30 -16 16 31 12 51 -10 51 -16 0 -20 -7 -20 -35z"/><path id="pUvWUinRZ" d="M2890 4420 c0 -27 43 -70 70 -70 29 0 25 24 -11 59 -35 36 -59 40 -59 11z"/><path id="p6t89FU9H" d="M3590 4410 c0 -19 48 -60 70 -60 27 0 26 27 -2 51 -25 20 -68 26 -68 9z"/><path id="pjMhrHeWR" d="M2935 4118 c-45 -26 -62 -78 -25 -78 11 0 20 5 20 11 0 16 26 39 44 39 9 0 16 8 16 20 0 23 -24 26 -55 8z"/><path id="pUUGjnWzF" d="M3230 4110 c0 -12 9 -22 24 -26 17 -4 27 -15 31 -35 5 -20 13 -29 26 -29 30 0 24 46 -10 81 -35 34 -71 39 -71 9z"/><path id="pydn6sBIq" d="M3635 4118 c-27 -14 -45 -38 -45 -60 0 -27 34 -22 50 7 7 14 22 25 32 25 11 0 18 7 18 20 0 22 -23 26 -55 8z"/><path id="p3XSwoXik" d="M3920 4111 c0 -13 9 -21 29 -26 36 -8 41 -24 41 -142 0 -88 1 -93 21 -93 20 0 21 4 17 116 -3 113 -4 116 -31 140 -35 30 -77 32 -77 5z"/><path id="plCIh1uq4" d="M3986 3778 c-3 -13 -6 -36 -6 -53 l1 -30 24 28 c30 34 34 77 6 77 -11 0 -21 -9 -25 -22z"/><path id="pvmswelEc" d="M3290 3760 c0 -25 -4 -30 -25 -30 -18 0 -25 -5 -25 -20 0 -30 34 -25 64 11 32 37 34 69 6 69 -16 0 -20 -7 -20 -30z"/><path id="pWmPv63lg" d="M2890 3760 c0 -27 43 -70 70 -70 29 0 25 24 -11 59 -35 36 -59 40 -59 11z"/><path id="pLxythBma" d="M3590 3750 c0 -19 48 -60 70 -60 27 0 27 36 0 45 -11 3 -20 11 -20 16 0 5 -11 9 -25 9 -14 0 -25 -5 -25 -10z"/><path id="pZKJa72nN" d="M2943 3425 c-49 -21 -74 -85 -33 -85 11 0 20 4 20 8 0 5 8 19 19 30 17 20 28 22 151 22 147 0 190 -13 190 -57 0 -16 6 -23 20 -23 45 0 10 91 -41 109 -47 16 -286 14 -326 -4z"/><path id="phttc11om" d="M3654 3434 c-12 -3 -29 -13 -38 -23 -17 -18 -12 -19 132 -13 180 6 215 1 230 -34 7 -14 12 -67 12 -119 0 -88 1 -95 20 -95 19 0 20 7 20 105 0 172 -8 179 -210 181 -80 1 -155 0 -166 -2z"/><path id="pte7lCIZ3" d="M4293 3270 c0 -47 2 -66 4 -42 2 23 2 61 0 85 -2 23 -4 4 -4 -43z"/><path id="p1EyxCTAbg" d="M3990 3085 c0 -8 -9 -24 -20 -35 -18 -18 -33 -20 -149 -20 -156 0 -191 6 -191 31 0 12 -7 19 -20 19 -28 0 -25 -31 6 -61 24 -23 33 -24 176 -27 167 -4 200 3 223 49 21 39 19 59 -5 59 -11 0 -20 -7 -20 -15z"/><path id="p138TiN5bI" d="M3290 3082 c0 -5 -9 -19 -20 -32 -19 -22 -22 -23 -196 -18 l-175 5 21 -21 c19 -19 34 -21 171 -24 161 -4 198 3 224 42 21 30 19 56 -5 56 -11 0 -20 -4 -20 -8z"/><path id="pOPOZ17c7" d="M1910 2875 c0 -14 5 -25 10 -25 6 0 10 -22 10 -50 l0 -50 35 0 c23 0 35 -5 35 -14 0 -8 7 -17 16 -20 24 -9 74 -7 74 3 0 11 -80 51 -103 51 -12 0 -17 9 -17 29 0 51 -26 100 -52 101 -5 0 -8 -11 -8 -25z"/><path id="pPBJbmipt" d="M1820 2796 c0 -8 -24 -22 -57 -32 -99 -33 -72 -60 32 -32 42 11 45 14 45 45 0 18 -4 33 -10 33 -5 0 -10 -6 -10 -14z"/><path id="pHA9GOuSy" d="M2100 2678 c0 -34 3 -38 25 -38 31 0 32 11 0 47 l-24 28 -1 -37z"/><path id="pwJq3WbCo" d="M1793 2673 c-16 -3 -23 -11 -23 -28 0 -23 0 -23 48 -8 56 17 122 10 170 -17 l32 -19 0 29 c0 28 -3 30 -35 30 -19 0 -35 5 -35 10 0 10 -111 12 -157 3z"/><path id="pNmAGzNdP" d="M2150 2545 c0 -28 4 -35 20 -35 21 0 24 10 14 48 -10 36 -34 27 -34 -13z"/><path id="pXkbobsX5" d="M2044 2525 c9 -46 -8 -105 -39 -139 l-24 -26 34 0 c33 0 35 2 35 35 0 24 5 35 15 35 12 0 15 14 15 65 0 59 -2 65 -21 65 -19 0 -20 -4 -15 -35z"/><path id="pV0cTdxWE" d="M1856 2307 c-89 -36 -108 -57 -52 -57 20 0 36 5 36 10 0 6 11 10 25 10 14 0 25 5 25 10 0 6 11 10 25 10 20 0 25 5 25 25 0 14 -1 25 -2 25 -2 -1 -39 -15 -82 -33z"/><path id="pvQzbMGoJ" d="M2020 2255 c0 -10 -10 -15 -30 -15 -25 0 -30 -4 -30 -25 0 -22 2 -24 25 -15 43 17 81 38 94 54 12 14 9 16 -23 16 -25 0 -36 -4 -36 -15z"/><path id="p1AvHQ5Wbw" d="M1860 2190 c0 -5 -11 -10 -25 -10 -20 0 -25 -5 -25 -25 0 -14 2 -25 4 -25 15 0 116 52 116 60 0 5 -16 10 -35 10 -19 0 -35 -4 -35 -10z"/><path id="pXfGJ6XQ" d="M1646 2156 c-9 -19 -19 -48 -22 -65 -6 -27 -4 -31 15 -31 17 0 21 6 21 30 0 17 5 30 10 30 6 0 10 16 10 35 0 44 -13 45 -34 1z"/><path id="pxkhR4Rzl" d="M1730 2065 c0 -22 5 -35 13 -35 8 0 18 16 24 35 11 33 10 35 -13 35 -21 0 -24 -5 -24 -35z"/><path id="p1DL8NYgQv" d="M1620 1998 c0 -30 13 -58 26 -58 9 0 14 12 14 35 0 28 -4 35 -20 35 -11 0 -20 -6 -20 -12z"/><path id="pEIZPCxmA" d="M1770 1935 c0 -33 2 -35 35 -35 19 0 35 5 35 10 0 6 -4 10 -9 10 -4 0 -20 11 -35 25 l-26 24 0 -34z"/><path id="p3IGW1QfF" d="M2053 1940 c-54 -24 -57 -44 -5 -37 20 3 47 8 60 12 19 6 22 4 22 -19 0 -14 -4 -26 -10 -26 -5 0 -10 -7 -10 -15 0 -9 -9 -15 -25 -15 -20 0 -25 -5 -25 -24 0 -23 2 -24 28 -15 54 19 88 62 75 96 -7 19 -50 63 -61 63 -4 0 -26 -9 -49 -20z"/><path id="pNcN4B1RH" d="M1640 1921 c0 -6 11 -23 25 -38 l24 -28 1 38 c0 33 -3 37 -25 37 -14 0 -25 -4 -25 -9z"/><path id="pGyHze4gE" d="M1750 1819 c0 -5 16 -17 35 -25 19 -8 35 -21 35 -29 0 -8 7 -15 15 -15 10 0 15 10 15 34 0 26 -5 35 -22 40 -36 9 -78 7 -78 -5z"/><path id="pJsCBGNHY" d="M1930 1740 l0 -60 -45 0 c-47 0 -58 -12 -26 -30 30 -16 48 -12 77 15 19 17 28 38 32 70 3 29 9 45 18 45 8 0 14 5 14 10 0 6 -16 10 -35 10 l-35 0 0 -60z"/><path id="p12FBlDPAH" d="M2115 1500 c-18 -20 -17 -20 18 -20 30 0 37 4 37 20 0 13 -7 20 -18 20 -11 0 -27 -9 -37 -20z"/><path id="pivTnj41U" d="M1547 1492 c-23 -26 -22 -52 3 -52 16 0 20 7 20 35 0 40 -1 41 -23 17z"/><path id="ptRcjkaua" d="M3524 1460 c6 -46 5 -50 -14 -50 -13 0 -20 -7 -20 -20 0 -29 34 -25 59 6 25 32 27 61 5 92 -26 37 -37 27 -30 -28z"/><path id="p16kCVGdzf" d="M1585 1129 c-28 -8 -55 -33 -55 -51 0 -4 11 -8 25 -8 16 0 25 6 25 15 0 13 85 15 709 15 621 0 710 -2 715 -15 5 -14 56 -22 56 -9 0 21 -26 45 -58 54 -46 12 -1373 12 -1417 -1z"/><path id="pVKjUhJ4F" d="M3275 1129 c-28 -8 -55 -33 -55 -51 0 -15 50 -8 56 7 5 12 29 15 125 15 95 0 119 3 119 14 0 7 -10 16 -22 20 -34 9 -188 6 -223 -5z"/><path id="pEoA7lnXD" d="M3520 1041 c0 -5 -9 -13 -20 -16 -25 -8 -27 -45 -2 -45 25 0 59 26 65 50 4 16 0 20 -19 20 -13 0 -24 -4 -24 -9z"/></g></g><g id="l7BPXm2a0aGr9Ksa1VT2eAa" fill="rgb(30,129,206)" style="transform: none;"><g style="transform: none;"><path id="pNzRE4uF6" d="M2992 2679 c-88 -44 -106 -102 -100 -331 4 -183 11 -206 75 -255 36 -28 38 -28 197 -31 l161 -3 -30 19 c-83 53 -95 92 -95 304 0 216 14 255 105 302 28 15 22 16 -120 16 -133 0 -155 -2 -193 -21z"/></g></g><g id="l24JmJCYAn0iWDvZV1HwU2D" fill="rgb(201,114,0)" style="transform: none;"><g style="transform: none;"><path id="pMhLfQVKP" d="M515 5075 c-123 -27 -262 -108 -345 -202 -76 -86 -78 -83 62 -83 l123 1 25 40 c57 94 202 199 330 240 l55 18 -95 0 c-52 0 -122 -7 -155 -14z"/><path id="pDSPTt1Io" d="M1101 5067 c2 -2 23 -11 47 -20 41 -16 42 -16 42 3 0 17 -7 20 -47 20 -25 0 -44 -2 -42 -3z"/><path id="p7JcyDH8v" d="M1230 5013 c1 -5 25 -25 55 -46 l55 -38 0 31 c0 23 -4 30 -20 30 -11 0 -20 7 -20 15 0 10 -11 15 -35 15 -19 0 -35 -3 -35 -7z"/><path id="pve3YLO0m" d="M783 4915 c-245 -66 -400 -311 -349 -551 47 -228 236 -385 460 -384 l71 1 -53 19 c-81 29 -131 62 -193 127 -93 97 -129 191 -129 332 1 206 119 372 320 449 l55 21 -65 0 c-36 0 -89 -7 -117 -14z"/><path id="p1BchCXD5s" d="M1390 4870 c31 -44 40 -45 40 -6 0 33 -2 36 -31 36 l-30 0 21 -30z"/><path id="px3So3ycr" d="M867 4840 c-13 -11 -27 -30 -31 -43 -3 -14 -20 -29 -44 -40 -81 -36 -113 -107 -72 -160 25 -31 79 -37 101 -11 51 62 149 54 149 -12 0 -32 -23 -50 -109 -86 -43 -18 -82 -43 -100 -64 -75 -85 -57 -219 36 -279 17 -11 33 -32 37 -47 13 -64 92 -90 134 -45 12 13 22 31 22 39 0 10 15 21 38 28 20 7 47 22 60 33 28 26 29 57 2 57 -13 0 -20 -7 -20 -18 0 -13 -13 -22 -50 -31 -38 -10 -50 -17 -50 -32 0 -10 -4 -19 -10 -19 -5 0 -10 -9 -10 -20 0 -15 -7 -20 -26 -20 -33 0 -54 21 -54 54 0 19 -5 26 -20 26 -11 0 -20 7 -20 15 0 9 -9 15 -25 15 -20 0 -25 5 -25 24 0 13 -6 26 -12 28 -8 3 -13 27 -13 68 0 41 5 65 13 68 6 2 12 15 12 28 0 17 6 24 19 24 22 0 135 50 139 62 2 4 10 8 19 8 29 0 43 27 43 85 0 73 -12 85 -88 85 -73 0 -92 -6 -92 -31 0 -27 -65 -27 -73 0 -9 34 4 71 24 71 11 0 19 4 19 8 0 5 18 14 39 21 35 10 40 15 46 51 7 41 13 44 52 34 15 -4 24 -18 30 -42 6 -27 15 -38 31 -40 12 -2 22 -8 22 -13 0 -5 9 -9 20 -9 11 0 20 -5 20 -12 0 -6 9 -31 21 -55 18 -37 20 -54 14 -113 -6 -61 -10 -70 -27 -70 -11 0 -22 -8 -25 -20 -3 -11 -11 -20 -19 -20 -17 0 -88 -33 -92 -42 -2 -5 -13 -8 -23 -8 -45 0 -59 -18 -59 -75 l0 -55 35 0 c41 0 43 5 13 30 -33 27 -15 49 66 82 80 33 114 57 143 106 30 48 38 110 23 172 -14 59 -38 92 -91 126 -23 14 -39 32 -39 43 0 24 -45 61 -75 61 -12 0 -34 -9 -48 -20z"/><path id="pQ2ge29l5" d="M270 4710 c0 -19 -7 -20 -109 -20 l-108 0 -16 -57 c-8 -32 -18 -73 -21 -90 l-5 -33 124 0 c123 0 125 0 125 23 0 29 23 111 44 160 l16 37 -25 0 c-18 0 -25 -5 -25 -20z"/><path id="p1A537cYcj" d="M1514 4653 c24 -80 28 -126 24 -239 l-5 -124 274 0 c307 0 315 1 375 68 64 71 62 172 -5 249 -54 61 -65 63 -382 63 -268 0 -286 -1 -281 -17z"/><path id="pcWBgDq5n" d="M10 4403 c1 -10 18 -87 31 -135 l10 -38 124 0 124 0 -14 34 c-8 19 -18 60 -21 90 l-7 56 -123 0 c-68 0 -124 -3 -124 -7z"/><path id="plzyIpUzj" d="M983 4272 c-24 -9 -43 -22 -43 -30 0 -11 10 -13 43 -8 23 3 59 6 80 6 42 -1 47 12 15 34 -27 19 -41 19 -95 -2z"/><path id="p1AdSR4YKv" d="M320 4140 c0 -6 -43 -10 -110 -10 -110 0 -111 0 -99 -21 6 -12 46 -57 88 -99 133 -134 253 -182 481 -194 l125 -6 -75 23 c-41 12 -104 38 -140 57 -75 40 -208 165 -235 223 -16 35 -35 49 -35 27z"/></g></g><g id="l6G2cPeSR0entl8XqP6GQdw" fill="rgb(190,109,0)" style="transform: none;"><g style="transform: none;"><path id="pQsPmyGcz" d="M1110 5066 c0 -2 14 -9 30 -15 24 -8 30 -7 30 5 0 9 -10 14 -30 14 -16 0 -30 -2 -30 -4z"/><path id="pmKUeD5VD" d="M1200 5032 c0 -8 52 -42 64 -42 3 0 6 11 6 25 0 22 -4 25 -35 25 -19 0 -35 -4 -35 -8z"/><path id="pQvaG2yOv" d="M1423 4828 c23 -35 51 -82 61 -105 21 -47 46 -57 46 -18 0 33 -31 95 -47 95 -7 0 -13 11 -13 25 0 16 -6 25 -15 25 -8 0 -15 9 -15 20 0 16 -7 20 -30 20 l-30 0 43 -62z"/><path id="pIF4JDo3z" d="M883 4850 c-19 -8 -43 -38 -43 -54 0 -12 42 -5 56 9 21 21 29 19 44 -10 7 -14 22 -25 32 -25 13 0 18 -7 18 -25 0 -14 6 -25 13 -25 7 0 18 -9 25 -20 8 -13 23 -20 43 -20 l30 0 -20 29 c-11 16 -36 36 -55 45 -24 11 -35 24 -39 45 -4 20 -17 35 -36 46 -34 17 -37 17 -68 5z"/><path id="ptgFpL85l" d="M320 4800 c0 -11 -7 -20 -15 -20 -10 0 -15 -11 -15 -35 0 -19 -1 -36 -2 -36 -2 -1 -55 -4 -118 -8 -98 -5 -115 -8 -118 -23 -3 -16 8 -18 115 -18 l119 0 41 80 c41 80 41 80 17 80 -17 0 -24 -6 -24 -20z"/><path id="pqvpdIJeR" d="M779 4747 c-58 -30 -87 -84 -69 -128 11 -26 37 -49 54 -49 13 0 5 51 -9 56 -8 4 -15 12 -15 20 0 17 44 61 70 69 13 4 20 15 20 31 0 13 -2 24 -3 24 -2 0 -24 -10 -48 -23z"/><path id="p1DsL4OzS3" d="M830 4631 l0 -28 35 16 c45 21 45 41 0 41 -32 0 -35 -3 -35 -29z"/><path id="pRCXIvBUe" d="M968 4573 c-3 -36 -7 -40 -68 -70 -76 -37 -86 -53 -36 -53 20 0 36 5 36 10 0 6 9 10 19 10 37 0 51 12 51 41 0 22 5 29 20 29 16 0 20 7 20 35 0 28 -4 35 -19 35 -16 0 -20 -8 -23 -37z"/><path id="p16nOysAvv" d="M1090 4580 c0 -17 -7 -47 -15 -67 -8 -19 -15 -46 -15 -59 0 -20 -5 -24 -30 -24 -16 0 -30 -4 -30 -8 0 -4 -19 -13 -43 -20 -58 -17 -69 -26 -65 -50 3 -21 4 -21 72 8 121 52 167 119 158 233 -3 31 -32 20 -32 -13z"/><path id="pXvq9ZyT9" d="M17 4533 c-4 -3 -7 -12 -7 -20 0 -10 28 -13 125 -13 118 0 125 1 125 20 0 19 -7 20 -118 20 -65 0 -122 -3 -125 -7z"/><path id="p82UA7REv" d="M778 4440 c-27 -21 -58 -77 -58 -104 0 -29 38 -19 45 12 3 15 17 36 30 46 14 11 25 29 25 42 0 29 -10 30 -42 4z"/><path id="p16GnMo44O" d="M850 4266 c0 -32 2 -35 40 -41 41 -7 113 1 141 15 10 6 19 3 27 -10 14 -24 6 -47 -19 -55 -10 -4 -19 -11 -19 -16 0 -5 -13 -9 -30 -9 -27 0 -30 -3 -30 -34 0 -30 -4 -34 -31 -40 -47 -9 -47 -9 -54 37 -8 47 -18 57 -57 57 -23 0 -28 4 -28 25 0 14 -4 25 -9 25 -5 0 -12 14 -16 30 -5 21 -12 30 -27 30 -18 0 -20 -4 -14 -31 8 -41 39 -83 81 -109 24 -15 35 -29 35 -45 0 -27 42 -65 72 -65 32 0 59 20 73 54 11 25 23 35 54 45 44 13 71 43 71 79 0 58 -52 90 -109 66 -56 -23 -131 -16 -131 12 0 8 -4 14 -10 14 -5 0 -10 -15 -10 -34z"/><path id="p1DS8ultPf" d="M47 4240 c5 -18 14 -20 105 -20 102 0 128 -9 128 -44 0 -34 23 -66 47 -66 14 0 23 4 21 8 -1 4 -16 38 -33 75 l-29 67 -122 0 c-117 0 -122 -1 -117 -20z"/></g></g><g id="l49MJbhP8R4Vo9VJv2fESRQ" fill="rgb(170,97,0)" style="transform: none;"><g style="transform: none;"><path id="pw22Blvv3" d="M1191 5028 c113 -56 229 -170 279 -275 l35 -73 290 3 290 2 47 27 c66 39 93 87 93 165 0 52 -4 68 -30 104 -16 23 -48 52 -70 63 -39 20 -55 21 -529 24 l-489 3 84 -43z"/><path id="pRcuLRovw" d="M860 4828 c-11 -12 -20 -29 -20 -39 0 -9 -14 -22 -32 -30 -18 -7 -47 -26 -65 -42 -42 -37 -46 -91 -10 -125 32 -30 60 -28 100 8 26 23 44 30 75 30 44 0 65 -17 65 -55 0 -37 -25 -59 -101 -88 -76 -30 -118 -64 -138 -113 -34 -81 -1 -191 69 -229 24 -13 37 -27 37 -40 0 -30 26 -62 55 -69 37 -9 84 18 92 54 3 17 12 30 20 30 20 0 76 30 90 49 19 24 15 55 -8 86 -23 29 -36 29 -122 7 -21 -6 -50 -7 -65 -3 -21 6 -27 13 -27 37 0 26 6 31 74 60 96 42 129 67 152 117 21 47 25 139 8 184 -13 35 -55 80 -91 99 -16 8 -28 21 -28 28 0 7 -9 25 -21 40 -27 34 -79 36 -109 4z"/><path id="p1F4yJvgys" d="M111 4798 c-19 -31 -61 -114 -61 -122 0 -3 54 -6 120 -6 l119 0 31 62 c17 34 36 68 42 75 8 11 -14 13 -113 13 -118 0 -125 -1 -138 -22z"/><path id="ppIdzXe0V" d="M10 4455 l0 -75 125 0 125 0 0 75 0 75 -125 0 -125 0 0 -75z"/><path id="p3CxWpdWp" d="M50 4240 c0 -5 14 -39 32 -75 l32 -65 122 0 121 0 -36 75 -36 75 -117 0 c-71 0 -118 -4 -118 -10z"/></g></g><g id="l5gcBVJjc1CGUEopjLSiKvc" fill="rgb(78,144,30)" style="transform: none;"><g style="transform: none;"><path id="pBygHYTZq" d="M1849 2891 c-16 -13 -24 -33 -28 -66 l-6 -47 -63 -20 c-124 -38 -190 -139 -129 -196 33 -31 50 -28 106 22 70 63 128 77 217 55 85 -22 124 -113 89 -205 -21 -55 -56 -80 -190 -134 -56 -22 -118 -54 -138 -71 -140 -115 -102 -367 64 -426 l49 -18 0 -46 c0 -59 24 -92 68 -92 46 0 70 27 74 81 l3 47 45 7 c98 17 150 52 150 103 0 35 -26 65 -56 65 -10 0 -43 -9 -72 -20 -62 -24 -158 -26 -207 -6 -40 17 -65 60 -65 112 0 56 53 100 176 147 128 49 184 90 218 159 73 151 25 337 -104 400 -30 15 -63 29 -72 32 -14 4 -18 16 -18 50 0 36 -5 48 -26 65 -33 26 -55 26 -85 2z"/><path id="pevxsZ4Gg" d="M1555 1495 c-32 -31 -33 -74 -2 -103 22 -21 33 -22 179 -22 l157 0 20 26 c28 35 26 69 -4 99 -23 24 -28 25 -175 25 -147 0 -152 -1 -175 -25z"/><path id="pz3thf0rc" d="M2116 1499 c-33 -26 -36 -79 -6 -109 20 -20 33 -20 713 -20 753 0 727 -2 741 55 7 29 -15 79 -39 89 -9 3 -324 6 -699 6 -676 0 -684 0 -710 -21z"/><path id="pVyRGG6a7" d="M1550 1108 c-27 -30 -26 -73 5 -103 l24 -25 716 0 716 0 24 25 c32 31 33 74 2 103 l-23 22 -722 0 -721 0 -21 -22z"/><path id="pUtp7hEJo" d="M3242 1107 c-29 -31 -28 -72 3 -102 23 -24 30 -25 139 -25 124 0 158 9 175 47 16 34 14 47 -10 77 -20 26 -22 26 -153 26 -126 0 -134 -1 -154 -23z"/></g></g><g id="l1uOpoUZQkWvPFinT0gXpBE" fill="rgb(49,127,70)" style="transform: none;"><g style="transform: none;"><path id="poDo2hVsh" d="M2944 4780 c-47 -19 -75 -100 -35 -100 13 0 21 9 26 29 8 38 22 41 183 41 119 0 134 -2 152 -20 13 -13 20 -33 20 -60 l0 -40 -181 0 c-105 0 -188 -4 -200 -10 -17 -10 -19 -22 -19 -111 0 -98 1 -101 29 -130 l29 -29 161 0 c155 0 161 1 188 24 28 24 28 25 31 168 6 241 0 248 -220 247 -79 0 -153 -4 -164 -9z"/><path id="p6LnAES96" d="M3619 4761 c-34 -35 -39 -71 -9 -71 12 0 22 9 26 24 8 32 26 36 185 36 135 0 136 0 149 -25 14 -27 50 -34 50 -11 0 63 -39 76 -220 76 l-152 0 -29 -29z"/><path id="puXBbWe1o" d="M3603 4623 c-9 -3 -13 -36 -13 -113 l0 -108 31 -26 c30 -25 34 -26 179 -26 82 0 160 4 175 10 43 16 59 70 50 170 -3 47 -12 88 -18 92 -13 8 -384 10 -404 1z"/><path id="po5IcYN2z" d="M2944 4120 c-48 -19 -75 -100 -34 -100 11 0 20 7 20 15 0 8 10 23 22 35 20 18 35 20 163 20 l141 0 17 -29 c9 -16 17 -43 17 -60 l0 -31 -181 0 c-105 0 -188 -4 -200 -10 -17 -10 -19 -22 -19 -111 0 -98 1 -101 29 -130 l29 -29 161 0 c155 0 161 1 188 24 28 24 28 25 31 168 6 241 0 248 -220 247 -79 0 -153 -4 -164 -9z"/><path id="pgrqVkCXC" d="M3644 4120 c-26 -10 -54 -48 -54 -72 0 -28 38 -23 46 6 8 32 26 36 177 36 123 0 129 -1 153 -25 28 -28 54 -33 54 -9 0 28 -19 52 -51 63 -37 13 -294 14 -325 1z"/><path id="p1BMTSuRva" d="M3608 3959 c-15 -8 -18 -25 -18 -112 1 -152 7 -157 222 -157 173 0 188 5 208 66 15 43 4 195 -13 206 -18 12 -379 9 -399 -3z"/><path id="p105XtpRQy" d="M2929 3417 c-40 -31 -53 -97 -19 -97 14 0 20 7 20 21 0 22 22 49 39 49 6 0 11 9 11 20 0 23 -26 26 -51 7z"/><path id="p7VmYdodv" d="M3230 3410 c0 -14 7 -20 24 -20 24 0 36 -28 36 -89 l0 -26 -164 3 c-91 2 -180 -1 -198 -6 l-33 -8 -3 -107 c-3 -103 -2 -108 22 -132 25 -25 27 -25 194 -25 231 0 226 -5 220 235 -3 147 -3 147 -31 171 -35 30 -67 32 -67 4z"/><path id="ps5tUpcOD" d="M3615 3405 c-31 -30 -34 -75 -5 -75 11 0 20 6 20 14 0 8 11 23 25 34 14 11 25 27 25 36 0 24 -37 19 -65 -9z"/><path id="p12yfrjV27" d="M3930 3411 c0 -11 9 -23 20 -26 11 -3 20 -11 20 -16 0 -5 11 -9 25 -9 32 0 32 14 0 45 -30 30 -65 33 -65 6z"/><path id="pIfkG6nHf" d="M3620 3271 c-24 -7 -25 -9 -28 -114 -3 -103 -2 -108 22 -132 25 -25 27 -25 194 -25 168 0 169 0 193 26 22 24 24 33 22 126 -1 59 -6 105 -13 112 -13 13 -349 19 -390 7z"/></g></g><g id="l5jokQdt7bsDemCREBBoK98" fill="rgb(44,115,63)" style="transform: none;"><g style="transform: none;"><path id="pZYv1nqb7" d="M2927 4768 c-26 -21 -37 -64 -37 -146 1 -63 3 -74 13 -61 26 34 55 39 210 39 141 0 157 -2 181 -21 l26 -20 0 89 c0 80 -2 91 -23 110 -22 21 -33 22 -188 22 -117 0 -170 -4 -182 -12z"/><path id="pEsgDBlOf" d="M3632 4773 c-27 -11 -42 -62 -42 -142 l0 -80 25 24 c24 25 27 25 190 25 163 0 166 0 190 -25 l25 -24 0 88 c0 74 -3 93 -21 115 l-20 26 -167 -1 c-92 0 -173 -3 -180 -6z"/><path id="pYixl1OzX" d="M2928 4106 c-27 -20 -38 -62 -38 -146 l0 -78 29 29 29 29 160 0 c146 0 161 -2 186 -21 l26 -20 0 84 c0 70 -3 89 -21 111 l-20 26 -167 0 c-121 -1 -172 -4 -184 -14z"/><path id="p1AeQ82fjM" d="M3632 4113 c-28 -11 -42 -62 -41 -150 0 -68 3 -83 11 -67 18 37 51 44 214 44 151 0 156 -1 179 -25 l25 -24 0 90 c0 82 -2 92 -25 114 -24 25 -27 25 -187 24 -90 0 -169 -3 -176 -6z"/><path id="piRubxRc0" d="M2924 3407 c-26 -23 -28 -30 -32 -123 l-5 -98 26 29 25 30 137 3 c155 4 198 -1 226 -29 19 -19 19 -18 19 70 0 136 2 135 -203 139 -162 3 -165 3 -193 -21z"/><path id="p18vb97UFT" d="M3623 3406 c-27 -23 -28 -29 -32 -122 l-3 -97 25 29 25 29 165 0 c161 0 166 -1 191 -24 l26 -24 0 89 c-1 137 -11 144 -219 144 -144 0 -151 -1 -178 -24z"/></g></g></svg>